<svg xmlns="http://www.w3.org/2000/svg" width="30" height="30" viewBox="0 0 30 30" fill="none"><g clip-path="url(#clip0_1_187)"><path d="M30 15C30 6.7157 23.2843 -2.67029e-05 15 -2.67029e-05C6.71572 -2.67029e-05 0 6.7157 0 15C0 22.4869 5.48528 28.6925 12.6562 29.8177V19.3359H8.84766V15H12.6562V11.6953C12.6562 7.93591 14.8956 5.85935 18.322 5.85935C19.9631 5.85935 21.6797 6.15232 21.6797 6.15232V9.84372H19.7882C17.9249 9.84372 17.3438 11 17.3438 12.1862V15H21.5039L20.8389 19.3359H17.3438V29.8177C24.5147 28.6925 30 22.4869 30 15Z" fill="#F9F9F9"></path></g><defs><clipPath id="clip0_1_187"><rect width="30" height="30" fill="white"></rect></clipPath></defs></svg>