<svg xmlns="http://www.w3.org/2000/svg" width="30" height="30" viewBox="0 0 30 30" fill="none"><g clip-path="url(#clip0_1_184)"><path d="M8.78758 0.105151C7.19158 0.180451 6.10168 0.435151 5.14888 0.809551C4.16278 1.19385 3.32698 1.70955 2.49538 2.54415C1.66378 3.37875 1.15168 4.21515 0.770079 5.20275C0.400779 6.15765 0.150579 7.24845 0.0800785 8.84535C0.00957855 10.4423 -0.00602145 10.9556 0.00177855 15.029C0.00957855 19.1024 0.0275786 19.613 0.104979 21.2132C0.181179 22.8089 0.434979 23.8985 0.809379 24.8516C1.19428 25.8377 1.70938 26.6732 2.54428 27.5051C3.37918 28.337 4.21498 28.8479 5.20498 29.2301C6.15898 29.5988 7.25008 29.8502 8.84668 29.9201C10.4433 29.99 10.9572 30.0062 15.0294 29.9984C19.1016 29.9906 19.6143 29.9726 21.2142 29.8967C22.8141 29.8208 23.898 29.5652 24.8514 29.1926C25.8375 28.8068 26.6736 28.2926 27.5049 27.4574C28.3362 26.6222 28.848 25.7852 29.2293 24.797C29.5989 23.843 29.85 22.7519 29.9193 21.1565C29.9892 19.5554 30.0057 19.0442 29.9979 14.9714C29.9901 10.8986 29.9718 10.388 29.8959 8.78835C29.82 7.18875 29.5659 6.10245 29.1918 5.14875C28.8063 4.16265 28.2918 3.32775 27.4572 2.49525C26.6226 1.66275 25.785 1.15125 24.7971 0.770851C23.8425 0.401551 22.752 0.149851 21.1554 0.0808506C19.5588 0.0118506 19.0449 -0.00584944 14.9712 0.00195056C10.8975 0.00975056 10.3875 0.0271506 8.78758 0.105151ZM8.96278 27.2216C7.50028 27.158 6.70618 26.915 6.17698 26.7116C5.47618 26.4416 4.97698 26.1152 4.44958 25.5929C3.92218 25.0706 3.59818 24.5696 3.32458 23.8703C3.11908 23.3411 2.87158 22.5479 2.80318 21.0854C2.72878 19.5047 2.71318 19.0301 2.70448 15.0254C2.69578 11.0207 2.71108 10.5467 2.78038 8.96535C2.84278 7.50405 3.08728 6.70905 3.29038 6.18015C3.56038 5.47845 3.88558 4.98015 4.40908 4.45305C4.93258 3.92595 5.43208 3.60135 6.13198 3.32775C6.66058 3.12135 7.45378 2.87595 8.91568 2.80635C10.4976 2.73135 10.9716 2.71635 14.9757 2.70765C18.9798 2.69895 19.455 2.71395 21.0375 2.78355C22.4988 2.84715 23.2941 3.08925 23.8224 3.29355C24.5235 3.56355 25.0224 3.88785 25.5495 4.41225C26.0766 4.93665 26.4015 5.43435 26.6751 6.13575C26.8818 6.66285 27.1272 7.45575 27.1962 8.91855C27.2715 10.5005 27.2886 10.9748 27.2958 14.9786C27.303 18.9824 27.2889 19.4579 27.2196 21.0386C27.1557 22.5011 26.9133 23.2955 26.7096 23.8253C26.4396 24.5258 26.1141 25.0253 25.5903 25.5521C25.0665 26.0789 24.5676 26.4035 23.8674 26.6771C23.3394 26.8832 22.5453 27.1292 21.0846 27.1988C19.5027 27.2732 19.0287 27.2888 15.0231 27.2975C11.0175 27.3062 10.545 27.29 8.96308 27.2216M21.1911 6.98325C21.1917 7.33928 21.2978 7.68714 21.4961 7.98283C21.6944 8.27852 21.976 8.50876 22.3052 8.64443C22.6343 8.78011 22.9963 8.81511 23.3454 8.74503C23.6945 8.67494 24.0149 8.50292 24.2662 8.2507C24.5175 7.99849 24.6883 7.67742 24.7571 7.3281C24.8259 6.97878 24.7896 6.6169 24.6527 6.28823C24.5159 5.95956 24.2846 5.67887 23.9882 5.48165C23.6918 5.28443 23.3435 5.17954 22.9875 5.18025C22.5102 5.1812 22.0528 5.37168 21.716 5.70979C21.3791 6.0479 21.1903 6.50597 21.1911 6.98325ZM7.29808 15.0152C7.30648 19.2692 10.7613 22.7099 15.0144 22.7018C19.2675 22.6937 22.7106 19.2392 22.7025 14.9852C22.6944 10.7312 19.2387 7.28955 14.985 7.29795C10.7313 7.30635 7.28998 10.7618 7.29808 15.0152ZM9.99988 15.0098C9.99792 14.0208 10.2893 13.0535 10.8371 12.2302C11.3848 11.4068 12.1645 10.7644 13.0774 10.3842C13.9903 10.0039 14.9954 9.90291 15.9657 10.0939C16.936 10.2849 17.8279 10.7594 18.5286 11.4573C19.2292 12.1552 19.7072 13.0451 19.9021 14.0147C20.0969 14.9842 19.9999 15.9898 19.6232 16.9042C19.2466 17.8186 18.6073 18.6007 17.7861 19.1518C16.9649 19.7028 15.9988 19.998 15.0099 20C14.3532 20.0013 13.7027 19.8733 13.0956 19.6233C12.4884 19.3732 11.9364 19.006 11.4712 18.5426C11.006 18.0792 10.6366 17.5287 10.3841 16.9225C10.1317 16.3164 10.0011 15.6664 9.99988 15.0098Z" fill="#F9F9F9"></path></g><defs><clipPath id="clip0_1_184"><rect width="30" height="30" fill="white"></rect></clipPath></defs></svg>